<svg width="50" height="50" viewBox="0 0 50 50" fill="none" xmlns="http://www.w3.org/2000/svg">
<g clip-path="url(#clip0)">
<path d="M30.8802 34.112C30.2957 33.5284 29.3646 33.4792 28.7221 33.997L25.6811 36.4491C25.079 36.9353 24.2163 36.9256 23.624 36.4262C23.624 36.4262 21.0314 34.6815 18.1747 31.8249C15.3181 28.9699 13.5725 26.3748 13.5725 26.3748C13.074 25.7833 13.0644 24.9206 13.5505 24.3185L16.0017 21.2775C16.5204 20.6342 16.4712 19.704 15.8868 19.1195L10.0646 13.2973C9.47122 12.7058 8.52435 12.6636 7.88011 13.2025L0.577377 19.3363C-0.00885301 19.8294 -0.170279 20.6624 0.193002 21.338C0.193002 21.338 1.17425 23.3425 2.08695 24.8766C4.59261 29.0927 8.66566 34.0786 12.2929 37.7067C15.9218 41.3338 20.905 45.4078 25.1237 47.9134C26.6577 48.8245 28.6614 49.8083 28.6614 49.8083C29.3354 50.1681 30.1709 50.0075 30.6623 49.4213L36.7969 42.1186C37.3358 41.4761 37.2936 40.5283 36.7021 39.935L30.8802 34.112Z" fill="black"/>
<path d="M32.3153 26.3037L34.7393 25.9193C34.3295 23.3408 33.1253 20.8528 31.1349 18.8631C29.1479 16.8762 26.6607 15.6721 24.0806 15.2605L23.6953 17.6836C25.785 18.0207 27.7867 18.986 29.3998 20.5992C31.0138 22.2122 31.9809 24.2149 32.3153 26.3037Z" fill="black"/>
<path d="M42.0637 7.93677C37.6711 3.54517 32.1869 0.899951 26.4902 0.0012207L26.1094 2.42524C31.3162 3.24849 36.31 5.65669 40.3269 9.6727C44.3429 13.6887 46.7502 18.6859 47.5743 23.8911L50.0001 23.5084C49.0996 17.8109 46.4545 12.3284 42.0637 7.93677Z" fill="black"/>
<path d="M25.2847 7.62231L24.9038 10.049C28.5556 10.6239 32.0581 12.308 34.8745 15.1243C37.6917 17.9414 39.3776 21.4422 39.9507 25.0958L42.3755 24.7132C41.7269 20.5717 39.805 16.582 36.6121 13.3892C33.4176 10.1956 29.4271 8.27446 25.2847 7.62231Z" fill="black"/>
</g>
<defs>
<clipPath id="clip0">
<rect width="50" height="50" fill="white"/>
</clipPath>
</defs>
</svg>
